<svg width="1278" height="1314" viewBox="0 0 1278 1314" fill="none" xmlns="http://www.w3.org/2000/svg">
<rect width="1278" height="1314" rx="639" fill="#4D4A4A"/>
<g filter="url(#filter0_d_499_183)">
<path d="M842.268 675.409L741.638 531.744L638.985 507.053L536.332 531.744L435.703 675.409C359.151 734.352 222.91 886.066 222.843 886.127C281.858 1048.79 445.887 1165.77 638.918 1165.77C831.948 1165.77 995.977 1048.79 1054.99 886.127C1054.93 886.066 918.684 734.352 842.133 675.409H842.268Z" fill="url(#paint0_radial_499_183)"/>
<path d="M476.956 402.241C550.742 411.016 631.678 422.151 702.901 396.25C723.472 388.746 743.571 380.152 764.007 372.467C782.352 365.568 800.765 358.972 819.313 352.557C765.895 331.558 704.385 319.576 638.962 319.576C538.939 319.576 448.157 347.534 381.183 393.042C413.22 394.555 445.122 398.549 476.956 402.362V402.241Z" fill="#171818"/>
<path d="M435.764 675.413L536.393 531.747L639.046 507.057V339.729C396.308 339.729 199.5 524.606 199.5 752.753C199.5 799.411 207.728 844.313 222.904 886.13C222.971 886.07 359.212 734.356 435.764 675.413Z" fill="url(#paint1_radial_499_183)"/>
<path d="M638.954 339.729V507.057L741.607 531.747L842.236 675.413C918.788 734.356 1055.03 886.07 1055.1 886.13C1070.27 844.313 1078.5 799.411 1078.5 752.753C1078.5 524.667 881.692 339.729 638.954 339.729Z" fill="url(#paint2_radial_499_183)"/>
<path d="M265.576 437.704C265.576 437.704 333.225 489.324 411.462 510.202C411.462 510.202 409.506 555.892 469.803 595.167C469.803 595.167 435.743 664.942 435.743 675.411C435.743 675.411 542.712 575.075 638.958 563.759V401.454L442.285 394.495" fill="#171818"/>
<path d="M447.388 464.273C483.944 497.496 579.785 504.516 579.785 504.516C589.632 505.121 596.309 506.392 600.76 507.784C606.696 509.66 610.27 515.288 608.719 520.795C597.928 559.041 546.399 558.013 546.399 558.013C485.293 556.318 442.33 466.694 442.33 466.694C442.33 466.694 441.655 459.129 447.388 464.334V464.273Z" fill="#F7F8F9"/>
<path d="M546.422 556.922C563.445 556.922 577.245 544.54 577.245 529.266C577.245 513.992 563.445 501.61 546.422 501.61C529.399 501.61 515.6 513.992 515.6 529.266C515.6 544.54 529.399 556.922 546.422 556.922Z" fill="#1F2020"/>
<path d="M573.262 525.635C573.262 538.888 561.256 546.15 546.486 546.15C531.715 546.15 519.71 538.888 519.71 525.635C519.71 512.382 531.715 501.61 546.486 501.61C561.256 501.61 573.262 512.382 573.262 525.635Z" fill="url(#paint3_linear_499_183)"/>
<path d="M546.425 556.44C552.012 556.44 556.542 545.385 556.542 531.749C556.542 518.113 552.012 507.059 546.425 507.059C540.837 507.059 536.308 518.113 536.308 531.749C536.308 545.385 540.837 556.44 546.425 556.44Z" fill="#1F2020"/>
<path d="M1012.44 437.704C1012.44 437.704 944.792 489.324 866.555 510.202C866.555 510.202 868.511 555.892 808.214 595.167C808.214 595.167 842.274 664.942 842.274 675.411C842.274 675.411 735.305 575.075 639.059 563.759V401.454L835.732 394.495" fill="#171818"/>
<path d="M830.629 464.273C794.073 497.496 698.233 504.516 698.233 504.516C688.385 505.121 681.708 506.392 677.257 507.784C671.322 509.66 667.747 515.288 669.298 520.795C680.089 559.041 731.618 558.013 731.618 558.013C792.725 556.318 835.688 466.694 835.688 466.694C835.688 466.694 836.362 459.129 830.629 464.334V464.273Z" fill="#F7F8F9"/>
<path d="M731.532 556.922C748.555 556.922 762.355 544.54 762.355 529.266C762.355 513.992 748.555 501.61 731.532 501.61C714.509 501.61 700.709 513.992 700.709 529.266C700.709 544.54 714.509 556.922 731.532 556.922Z" fill="#1F2020"/>
<path d="M704.766 525.635C704.766 538.888 716.772 546.15 731.542 546.15C746.313 546.15 758.319 538.888 758.319 525.635C758.319 512.382 746.313 501.61 731.542 501.61C716.772 501.61 704.766 512.382 704.766 525.635Z" fill="url(#paint4_linear_499_183)"/>
<path d="M731.534 556.44C737.122 556.44 741.651 545.385 741.651 531.749C741.651 518.113 737.122 507.059 731.534 507.059C725.947 507.059 721.417 518.113 721.417 531.749C721.417 545.385 725.947 556.44 731.534 556.44Z" fill="#1F2020"/>
<path d="M638.996 487.812C694.436 428.506 1030.86 438.068 1030.86 438.068C1030.86 438.068 888.884 330.773 764.446 340.334C764.446 340.334 680.812 353.406 638.996 362.12C597.179 353.406 513.546 340.334 513.546 340.334C389.108 330.712 247.134 438.068 247.134 438.068C247.134 438.068 583.622 428.446 638.996 487.812Z" fill="url(#paint5_linear_499_183)"/>
<path d="M915.173 410.167C915.173 410.167 850.02 401.452 830.595 360.422C830.595 360.422 1040.62 140.567 1042.58 148.434C1044.53 156.301 927.853 399.697 915.173 410.167Z" fill="url(#paint6_linear_499_183)"/>
<path d="M556.548 652.716C553.85 652.716 530.041 656.226 525.725 649.206C521.408 642.247 509.942 643.397 509.942 643.397C498.679 649.206 489.843 667.785 484.852 681.038C484.852 681.038 481.952 690.539 484.852 691.507C484.852 691.507 488.764 693.383 500.028 688.663C519.52 680.069 552.029 668.632 556.548 669.237C562.955 670.084 559.246 652.716 556.548 652.716Z" fill="#171818"/>
<path d="M714.108 652.716C716.806 652.716 740.614 656.226 744.931 649.206C749.247 642.247 760.713 643.397 760.713 643.397C771.977 649.206 780.812 667.785 785.803 681.038C785.803 681.038 788.703 690.539 785.803 691.507C785.803 691.507 781.891 693.383 770.628 688.663C751.136 680.069 718.627 668.632 714.108 669.237C707.701 670.084 711.41 652.716 714.108 652.716Z" fill="#171818"/>
<path d="M362.866 410.167C362.866 410.167 428.019 401.452 447.444 360.422C447.444 360.422 237.416 140.567 235.46 148.434C233.504 156.301 350.186 399.697 362.866 410.167Z" fill="url(#paint7_linear_499_183)"/>
<path d="M638.989 830.273C480.828 830.273 368.8 761.405 368.8 761.405C447.847 931.456 638.989 925.283 638.989 925.283C638.989 925.283 830.131 931.456 909.178 761.405C909.178 761.405 797.15 830.273 638.989 830.273Z" fill="#171818"/>
<path d="M459.628 941.196C459.628 941.196 464.619 872.207 492.676 823.068L418.823 815.201C418.823 815.201 400.815 901.074 459.628 941.196Z" fill="url(#paint8_linear_499_183)"/>
<path d="M421.505 799.949L418.807 815.139C427.238 812.9 437.085 810.661 448.281 808.482C433.105 803.762 421.505 799.889 421.505 799.889V799.949Z" fill="url(#paint9_linear_499_183)"/>
<path d="M448.281 808.541C437.085 810.659 427.238 812.958 418.807 815.197L492.66 823.064C492.93 822.52 493.267 822.036 493.605 821.491C479.576 818.042 462.377 812.958 448.281 808.601V808.541Z" fill="url(#paint10_linear_499_183)"/>
<path d="M448.281 808.541C437.085 810.659 427.238 812.958 418.807 815.197L492.66 823.064C492.93 822.52 493.267 822.036 493.605 821.491C479.576 818.042 462.377 812.958 448.281 808.601V808.541Z" fill="url(#paint11_linear_499_183)"/>
<path d="M485.795 826.098C465.089 865.131 457.872 913.544 455.714 932.667C413.425 897.326 420.642 833.602 422.868 819.018C421.047 818.594 419.226 818.11 417.472 817.505C416.123 817.021 414.976 816.476 413.897 815.811C411.739 827.551 399.734 905.617 456.725 944.529C457.535 945.073 458.547 945.376 459.558 945.376C460.233 945.376 460.907 945.255 461.514 945.013C463.065 944.347 464.145 943.016 464.28 941.442C464.28 940.716 469.338 875.419 495.237 827.793C492.067 827.309 488.965 826.643 485.727 826.098H485.795Z" fill="#171818"/>
<path d="M416.214 798.624C416.214 798.624 412.437 799.834 411.426 802.739C410.414 805.643 409.2 810.787 409.2 811.392C409.2 811.998 408.525 807.459 409.2 814.6C409.2 814.963 409.267 815.387 409.335 815.75C411.021 816.234 412.505 817.081 413.786 818.291C415.135 819.381 416.079 820.712 416.619 822.285C416.889 822.709 417.024 823.193 417.159 823.617L422.689 820.409C422.689 820.409 425.05 806.975 426.669 800.015C428.287 793.056 416.214 798.624 416.214 798.624Z" fill="#171818"/>
<path d="M485.831 826.092L490.013 816.531C490.013 816.531 497.094 818.528 498.848 821.312C500.602 824.095 501.951 825.669 502.558 827.968C503.165 830.268 502.895 839.406 502.558 839.83" fill="#171818"/>
<path d="M422.073 800.92C422.073 800.92 442.105 810.3 491.408 822.766C491.813 822.887 492.217 822.948 492.689 823.069C542.937 835.656 460.787 808.605 460.787 808.605L426.794 796.502" fill="#171818"/>
<path d="M818.381 941.196C818.381 941.196 813.39 872.207 785.333 823.068L859.186 815.201C859.186 815.201 877.194 901.074 818.381 941.196Z" fill="url(#paint12_linear_499_183)"/>
<path d="M856.476 799.949L859.173 815.139C850.743 812.9 840.896 810.661 829.699 808.482C844.875 803.762 856.476 799.889 856.476 799.889V799.949Z" fill="url(#paint13_linear_499_183)"/>
<path d="M829.708 808.541C840.904 810.659 850.751 812.958 859.182 815.197L785.328 823.064C785.059 822.52 784.721 822.036 784.384 821.491C798.413 818.042 815.612 812.958 829.708 808.601V808.541Z" fill="url(#paint14_linear_499_183)"/>
<path d="M829.708 808.541C840.904 810.659 850.751 812.958 859.182 815.197L785.328 823.064C785.059 822.52 784.721 822.036 784.384 821.491C798.413 818.042 815.612 812.958 829.708 808.601V808.541Z" fill="url(#paint15_linear_499_183)"/>
<path d="M792.193 826.098C812.899 865.131 820.116 913.544 822.274 932.667C864.563 897.326 857.346 833.602 855.121 819.018C856.942 818.594 858.763 818.11 860.516 817.505C861.865 817.021 863.012 816.476 864.091 815.811C866.249 827.551 878.255 905.617 821.263 944.529C820.453 945.073 819.442 945.376 818.43 945.376C817.755 945.376 817.081 945.255 816.474 945.013C814.923 944.347 813.844 943.016 813.709 941.442C813.709 940.716 808.65 875.419 782.751 827.793C785.921 827.309 789.023 826.643 792.261 826.098H792.193Z" fill="#171818"/>
<path d="M861.869 821.19C862.072 820.585 862.409 820.041 862.746 819.496C862.746 819.556 862.611 819.617 862.544 819.677C862.611 819.617 862.679 819.496 862.746 819.435C863.016 819.072 863.286 818.709 863.555 818.407C863.893 817.983 864.297 817.499 864.77 817.136C865.579 816.41 866.59 815.744 867.602 815.199C868.007 814.957 868.411 814.836 868.816 814.655C869.491 807.514 868.816 812.052 868.816 811.447C868.816 810.842 867.67 805.698 866.59 802.793C865.511 799.889 861.802 798.678 861.802 798.678C861.802 798.678 849.729 793.05 851.348 800.07C852.966 807.03 855.327 820.464 855.327 820.464L860.925 823.732C861.127 822.885 861.397 822.098 861.869 821.311V821.19Z" fill="#171818"/>
<path d="M792.198 826.092L788.017 816.531C788.017 816.531 780.935 818.528 779.181 821.312C777.428 824.095 776.079 825.669 775.472 827.968C774.865 830.268 775.134 839.406 775.472 839.83" fill="#171818"/>
<path d="M855.941 800.92C855.941 800.92 835.91 810.3 786.607 822.766C786.202 822.887 785.797 822.948 785.325 823.069C735.078 835.656 817.227 808.605 817.227 808.605L851.22 796.502" fill="#171818"/>
</g>
<defs>
<filter id="filter0_d_499_183" x="184.5" y="148.228" width="939" height="1085.04" filterUnits="userSpaceOnUse" color-interpolation-filters="sRGB">
<feFlood flood-opacity="0" result="BackgroundImageFix"/>
<feColorMatrix in="SourceAlpha" type="matrix" values="0 0 0 0 0 0 0 0 0 0 0 0 0 0 0 0 0 0 127 0" result="hardAlpha"/>
<feOffset dx="15" dy="37.5"/>
<feGaussianBlur stdDeviation="15"/>
<feColorMatrix type="matrix" values="0 0 0 0 0.137255 0 0 0 0 0.121569 0 0 0 0 0.12549 0 0 0 0.72 0"/>
<feBlend mode="normal" in2="BackgroundImageFix" result="effect1_dropShadow_499_183"/>
<feBlend mode="normal" in="SourceGraphic" in2="effect1_dropShadow_499_183" result="shape"/>
</filter>
<radialGradient id="paint0_radial_499_183" cx="0" cy="0" r="1" gradientUnits="userSpaceOnUse" gradientTransform="translate(638.985 836.382) scale(392.334 352.023)">
<stop offset="0.01" stop-color="#D3D3D3"/>
<stop offset="0.49" stop-color="#F2F2F2"/>
<stop offset="1" stop-color="#97999B"/>
</radialGradient>
<radialGradient id="paint1_radial_499_183" cx="0" cy="0" r="1" gradientUnits="userSpaceOnUse" gradientTransform="translate(419.239 612.96) scale(265.535 238.252)">
<stop offset="0.08" stop-color="#4C8B40"/>
<stop offset="0.31" stop-color="#4C8B40"/>
<stop offset="1" stop-color="#1C2E18"/>
</radialGradient>
<radialGradient id="paint2_radial_499_183" cx="0" cy="0" r="1" gradientUnits="userSpaceOnUse" gradientTransform="translate(858.761 -78.3164) scale(265.535 238.252)">
<stop offset="0.08" stop-color="#4C8B40"/>
<stop offset="0.31" stop-color="#4C8B40"/>
<stop offset="1" stop-color="#1C2E18"/>
</radialGradient>
<linearGradient id="paint3_linear_499_183" x1="546.418" y1="507.057" x2="546.418" y2="546.876" gradientUnits="userSpaceOnUse">
<stop stop-color="#58A746"/>
<stop offset="0.25" stop-color="#57A445"/>
<stop offset="0.87" stop-color="#377338"/>
<stop offset="1" stop-color="#377338"/>
</linearGradient>
<linearGradient id="paint4_linear_499_183" x1="731.61" y1="507.057" x2="731.61" y2="546.876" gradientUnits="userSpaceOnUse">
<stop stop-color="#58A746"/>
<stop offset="0.25" stop-color="#57A445"/>
<stop offset="0.87" stop-color="#377338"/>
<stop offset="1" stop-color="#377338"/>
</linearGradient>
<linearGradient id="paint5_linear_499_183" x1="247.134" y1="413.801" x2="1030.93" y2="413.801" gradientUnits="userSpaceOnUse">
<stop stop-color="#D3D3D3"/>
<stop offset="0.49" stop-color="#F2F2F2"/>
<stop offset="1" stop-color="#D3D3D3"/>
</linearGradient>
<linearGradient id="paint6_linear_499_183" x1="1011.55" y1="316.004" x2="924.438" y2="233.377" gradientUnits="userSpaceOnUse">
<stop stop-color="#122012"/>
<stop offset="0.26" stop-color="#122012"/>
<stop offset="0.58" stop-color="#3B6731"/>
<stop offset="1" stop-color="#3B6731"/>
</linearGradient>
<linearGradient id="paint7_linear_499_183" x1="385.191" y1="242.053" x2="267.048" y2="311.992" gradientUnits="userSpaceOnUse">
<stop stop-color="#3B6731"/>
<stop offset="0.45" stop-color="#3B6731"/>
<stop offset="0.75" stop-color="#122012"/>
<stop offset="1" stop-color="#122012"/>
</linearGradient>
<linearGradient id="paint8_linear_499_183" x1="416.192" y1="878.199" x2="510.145" y2="878.199" gradientUnits="userSpaceOnUse">
<stop stop-color="#D3D3D3"/>
<stop offset="0.49" stop-color="#F2F2F2"/>
<stop offset="1" stop-color="#D3D3D3"/>
</linearGradient>
<linearGradient id="paint9_linear_499_183" x1="418.807" y1="807.574" x2="510.129" y2="807.574" gradientUnits="userSpaceOnUse">
<stop stop-color="#D3D3D3"/>
<stop offset="0.49" stop-color="#F2F2F2"/>
<stop offset="1" stop-color="#D3D3D3"/>
</linearGradient>
<linearGradient id="paint10_linear_499_183" x1="416.176" y1="815.802" x2="510.129" y2="815.802" gradientUnits="userSpaceOnUse">
<stop stop-color="#D3D3D3"/>
<stop offset="0.49" stop-color="#F2F2F2"/>
<stop offset="1" stop-color="#D3D3D3"/>
</linearGradient>
<linearGradient id="paint11_linear_499_183" x1="418.807" y1="815.802" x2="510.129" y2="815.802" gradientUnits="userSpaceOnUse">
<stop stop-color="#D3D3D3"/>
<stop offset="0.49" stop-color="#F2F2F2"/>
<stop offset="1" stop-color="#D3D3D3"/>
</linearGradient>
<linearGradient id="paint12_linear_499_183" x1="861.816" y1="878.199" x2="767.864" y2="878.199" gradientUnits="userSpaceOnUse">
<stop stop-color="#D3D3D3"/>
<stop offset="0.49" stop-color="#F2F2F2"/>
<stop offset="1" stop-color="#D3D3D3"/>
</linearGradient>
<linearGradient id="paint13_linear_499_183" x1="859.173" y1="807.574" x2="767.851" y2="807.574" gradientUnits="userSpaceOnUse">
<stop stop-color="#D3D3D3"/>
<stop offset="0.49" stop-color="#F2F2F2"/>
<stop offset="1" stop-color="#D3D3D3"/>
</linearGradient>
<linearGradient id="paint14_linear_499_183" x1="861.812" y1="815.802" x2="767.86" y2="815.802" gradientUnits="userSpaceOnUse">
<stop stop-color="#D3D3D3"/>
<stop offset="0.49" stop-color="#F2F2F2"/>
<stop offset="1" stop-color="#D3D3D3"/>
</linearGradient>
<linearGradient id="paint15_linear_499_183" x1="859.182" y1="815.802" x2="767.86" y2="815.802" gradientUnits="userSpaceOnUse">
<stop stop-color="#D3D3D3"/>
<stop offset="0.49" stop-color="#F2F2F2"/>
<stop offset="1" stop-color="#D3D3D3"/>
</linearGradient>
</defs>
</svg>
